# xmcd CD database file
#
# Track frame offsets:
#	150
#	9750
#	20303
#	30463
#	41113
#	52590
#	62258
#	73055
#	84288
#	95385
#	106345
#	116055
#	125658
#	135605
#	147288
#	157968
#
# Disc length: 2228 seconds
#
# Revision: 1
# Processed by: cddbd v1.4PL0 Copyright (c) Steve Scherf et al.
# Submitted via: CDex 1.40Release
#
DISCID=c108b210
DTITLE=Roy Hogsed - Snake Dance Boogie
DYEAR=1900
DGENRE=Country
TTITLE0=Snake Dance Boogie
TTITLE1=Let Your Pendulum Swing
TTITLE2=Put Some Sugar In Your Shoes
TTITLE3=Stretchin' A Point Or Two
TTITLE4=Mean, Mean Woman
TTITLE5=Don't Bit The Hand That's Feeding You
TTITLE6=The Red We Want Is The Red We've Got
TTITLE7=You're Just My Style
TTITLE8=Shuffleboard Shuffle
TTITLE9=Poco Tempo(Inst.)
TTITLE10=I'm Gonna Get Along Without You Now
TTITLE11=I'm Hurtin' Again
TTITLE12=Do You Call That A Sweetheart
TTITLE13=Who Wrote That Letter To Old John
TTITLE14=Babies And Bacon
TTITLE15=Too Many Chiefs And Not Enough Indians
EXTD=ID3G: 2
EXTT0=
EXTT1=
EXTT2=
EXTT3=
EXTT4=
EXTT5=
EXTT6=
EXTT7=
EXTT8=
EXTT9=
EXTT10=
EXTT11=
EXTT12=
EXTT13=
EXTT14=
EXTT15=
PLAYORDER=
